<?xml version="1.0" encoding="UTF-8"?>
<svg width="546" height="162" inkscape:version="1.0.2 (e86c870879, 2021-01-15)" sodipodi:docname="CRC_Press_logo.svg" version="1.1" viewBox="0 0 546 162" xmlns="http://www.w3.org/2000/svg" xmlns:cc="http://creativecommons.org/ns#" xmlns:dc="http://purl.org/dc/elements/1.1/" xmlns:inkscape="http://www.inkscape.org/namespaces/inkscape" xmlns:rdf="http://www.w3.org/1999/02/22-rdf-syntax-ns#" xmlns:sodipodi="http://sodipodi.sourceforge.net/DTD/sodipodi-0.dtd">
 <sodipodi:namedview bordercolor="#666666" borderopacity="1" gridtolerance="10" guidetolerance="10" inkscape:current-layer="g891" inkscape:cx="295.74972" inkscape:cy="47.945722" inkscape:pageopacity="0" inkscape:pageshadow="2" inkscape:window-height="1044" inkscape:window-maximized="1" inkscape:window-width="1920" inkscape:window-x="0" inkscape:window-y="0" inkscape:zoom="1.6473257" objecttolerance="10" pagecolor="#ffffff" showgrid="false"/>
 <metadata>
  <rdf:RDF>
   <cc:Work rdf:about="">
    <dc:format>image/svg+xml</dc:format>
    <dc:type rdf:resource="http://purl.org/dc/dcmitype/StillImage"/>
    <dc:title/>
   </cc:Work>
  </rdf:RDF>
 </metadata>
 <g transform="translate(-.8989 -.8989)">
  <path d="m72.61 161.5c-32.98-5.159-58.78-28.3-66.45-59.59-2.667-10.88-2.632-27.05 0.0812-37.48 7.416-28.5 29.45-50.16 58.45-57.45 9.862-2.479 26.55-2.676 36.93-0.4365 9.44 2.036 25.64 9.836 33.43 16.09 12.33 9.91 22.12 25.09 26.47 41.02 2.821 10.35 3.029 28.38 0.4408 38.25-7.502 28.63-30.22 51.04-58.78 57.96-7.975 1.932-23.39 2.755-30.58 1.631zm30.18-6.525c42.86-11.31 66.65-55.49 51.89-96.33-9.732-26.93-34.36-45.9-63.17-48.65-23.43-2.243-43.77 5.115-60.91 22.04-7.799 7.699-9.828 10.41-13.68 18.3-6.025 12.35-7.959 20.53-7.889 33.37 0.1421 25.99 13.47 49.32 35.91 62.88 6.419 3.877 19.87 8.776 27.29 9.939 7.514 1.178 23.24 0.3783 30.55-1.553zm-71.58-33.14c-6.962-3.45-9.475-8.744-9.461-19.93 0.0096-7.605 0.363-9.469 2.503-13.2 5.088-8.862 14.54-12.98 23.09-10.05 2.546 0.8723 3.441 0.821 4.321-0.2472 0.6103-0.7412 2.62-1.84 4.466-2.441l3.356-1.094-0.7153 8.102c-0.3934 4.456-0.8007 8.198-0.905 8.316-0.1044 0.118-1.856 0.8988-3.893 1.735-3.55 1.458-3.703 1.44-3.703-0.445 0-1.081-1.307-3.404-2.905-5.161l-2.905-3.196-3.655 1.713c-4.946 2.318-7.503 7.937-7.532 16.56-0.01745 5.155 0.4497 7.187 2.263 9.84 3.866 5.658 9.639 4.756 13.23-2.066 1.192-2.262 10.12-6.614 11.27-5.49 0.8381 0.8237-2.05 7.951-4.861 12-5.114 7.358-15.08 9.459-23.97 5.053zm28.72-8.856c0.3296-1.759 1.262-3.72 2.072-4.358 1.16-0.914 4.3-20.32 5.267-32.56 0.01151-0.1456-1.134 0.02017-2.546 0.3684-2.493 0.6149-2.557 0.5094-2.253-3.671l0.3139-4.304 12.51-5.088c15.02-6.109 19.02-6.51 23.01-2.31 4.974 5.233 4.524 13.62-1.032 19.26l-3.208 3.253 7.415 8.894 3.414-1.6c4.073-1.909 4.651-1.542 3.841 2.438-0.6121 3.008-3.235 4.401-22.18 11.78-1.856 0.7232-1.6-5.652 0.2821-7.004 1.334-0.9591 1.137-1.631-1.519-5.182-2.868-3.833-3.227-4.016-5.927-3.014-2.408 0.8933-2.973 1.778-3.486 5.457-0.9514 6.822-0.8029 8.062 0.8893 7.424 1.157-0.4363 1.502 0.2167 1.502 2.843 0 3.359-0.1294 3.462-8.797 6.993-4.839 1.971-9.107 3.584-9.486 3.584-0.3785 0-0.4185-1.439-0.08888-3.198zm22.68-33.12c6.782-2.857 9.319-7.382 6.365-11.35-1.295-1.74-1.51-1.742-6.007-0.05441-3.51 1.317-4.667 2.265-4.675 3.831-0.0061 1.144-0.2903 3.741-0.6315 5.77-0.3413 2.029-0.3737 3.69-0.07198 3.69 0.3017 0 2.561-0.8477 5.02-1.884zm30.91 8.101c-8.748-4.237-12.48-16.99-8.665-29.61 3.433-11.36 14.09-17.42 24.41-13.89 2.662 0.9121 3.411 0.8307 4.404-0.4787 0.6583-0.8677 2.732-1.874 4.609-2.237l3.412-0.6593-0.6499 5.32c-0.3574 2.926-0.6538 6.532-0.6586 8.013-7e-3 2.161-0.7246 2.987-3.635 4.182-1.994 0.819-3.761 1.489-3.925 1.489-0.1644 0-0.5944-1.323-0.9557-2.94-0.3613-1.617-1.79-3.816-3.174-4.886-2.217-1.714-2.888-1.798-5.626-0.6993-6.971 2.796-10.08 16.61-5.811 25.85 2.991 6.474 8.198 6.243 12.87-0.5702 1.517-2.212 3.944-3.996 6.979-5.128 2.559-0.9548 4.837-1.555 5.062-1.334 0.7493 0.7365-1.969 7.863-4.44 11.64-3.592 5.492-7.705 7.584-14.87 7.561-3.503-0.01092-7.392-0.6898-9.331-1.629zm111.9 50.03c0-0.4543 1.105-1.321 2.455-1.925 1.35-0.6046 3.114-2.352 3.92-3.884 1.373-2.609 1.239-3.301-2.115-10.96-2.938-6.705-3.328-8.325-2.176-9.025 1.94-1.179 2.745-0.1321 5.362 6.97l2.271 6.166 2.808-7.035c2.865-7.178 3.164-7.545 5.106-6.282 1.346 0.8746-8.763 23.68-11.33 25.57-1.887 1.386-6.298 1.669-6.298 0.4039zm301.3-12.53c0-13.26 0.0161-13.35 2.253-13.13 1.239 0.1221 3.5-0.1177 5.025-0.533 8.19-2.23 13.68 7.029 8.809 14.87-2.176 3.507-6.773 5.031-10.02 3.323-1.954-1.028-2.061-0.8262-2.061 3.87 0 4.298-0.2651 4.954-2.002 4.954-1.904 0-2.002-0.656-2.002-13.35zm11.89 1.207c2.117-2.507 2.471-7.366 0.7288-9.98-3.081-4.622-8.609-1.897-8.609 4.245 0 5.578 4.963 9.19 7.88 5.735zm-327.7 2.729c-2.096-2.06-1.999-6.64 0.1788-8.505 0.9636-0.825 3.103-1.927 4.755-2.448 5.806-1.833 2.535-4.78-3.504-3.156-0.85 0.2285-1.502-0.2368-1.502-1.072 0-0.8826 1.482-1.836 3.686-2.371 2.892-0.7023 4.24-0.5384 6.257 0.7607 2.317 1.492 2.571 2.278 2.571 7.948 0 3.461 0.2734 6.993 0.6077 7.849 0.4356 1.116 0.0105 1.556-1.502 1.556-1.16 0-2.109-0.4937-2.109-1.097 0-0.6738-0.9521-0.484-2.468 0.492-3.102 1.998-4.971 2.009-6.972 0.0429zm6.64-3.128c1.804-2.05 2.972-6.15 1.751-6.15-2.598 0-5.96 2.494-5.96 4.422 0 3.718 1.805 4.459 4.209 1.728zm41.15 3.496c-1.21-0.5746-2.951-2.601-3.87-4.503-3.079-6.377 1.433-14.01 8.272-14 3.721 8e-3 8.173 3.694 8.87 7.346 1.591 8.338-5.916 14.65-13.27 11.15zm6.728-2.77c2.327-1.224 3.553-6.938 2.072-9.657-3.704-6.803-11.81-0.7749-8.94 6.648 1.498 3.872 3.533 4.764 6.867 3.01zm34.37 2.972c-2.564-1.017-5.363-4.702-5.363-7.06 0-0.9318 1.083-2.931 2.405-4.443 2.258-2.58 2.314-2.923 0.906-5.599-1.376-2.615-1.339-3.063 0.4466-5.424 2.165-2.864 7.453-3.962 9.812-2.038 2.08 1.697 0.7946 2.927-2.402 2.299-1.84-0.3617-3.209-0.0253-4.076 1.002-1.122 1.328-0.4463 2.415 4.792 7.711 5.812 5.874 6.099 6.037 6.117 3.458 0.0126-1.8 0.5474-2.706 1.597-2.706 1.19 0 1.505 0.8362 1.281 3.395-0.2202 2.511 0.3394 4.062 2.15 5.956 2.047 2.142 2.208 2.706 0.9814 3.451-0.9614 0.584-2.272 0.3713-3.808-0.6184-2.109-1.358-2.674-1.354-5.667 0.0418-3.671 1.712-5.945 1.855-9.172 0.5748zm8.211-3.463c1.879-1.437 1.812-1.601-2.001-4.94-4.563-3.995-5.948-3.946-6.371 0.2285-0.5306 5.227 4.21 7.895 8.372 4.711zm50.15 2.639c-2.161-2.347-2.115-6.358 0.0951-8.255 0.9636-0.8272 3.488-2.052 5.609-2.722 3.449-1.089 3.696-1.376 2.337-2.712-1.055-1.037-2.387-1.28-4.358-0.7938-3.576 0.8822-3.725 0.8748-4.09-0.2016-0.3901-1.15 4.187-3.195 7.151-3.195 3.812 0 5.306 2.801 5.907 11.07 0.5127 7.057 0.4103 7.626-1.371 7.626-1.059 0-1.925-0.4679-1.925-1.04 0-0.5828-0.9779-0.3666-2.225 0.492-2.929 2.016-5.102 1.935-7.131-0.2677zm7.281-3.745c3.707-4.631 2.002-6.99-2.708-3.747-2.15 1.48-2.932 4.333-1.558 5.684 1.176 1.155 2.142 0.7164 4.266-1.937zm35.22 4.171c-6.709-3.655-6.489-14.06 0.3624-17.13 4.436-1.987 9.539-1.219 9.539 1.434 0 1.073-0.8128 1.265-3.364 0.795-2.863-0.5279-3.683-0.2214-5.506 2.056-1.178 1.472-2.142 3.443-2.142 4.379 0 0.9364 0.9639 2.907 2.142 4.379 1.807 2.258 2.656 2.582 5.428 2.07 4.085-0.7532 5.543 1.06 1.936 2.408-3.45 1.289-5.484 1.194-8.394-0.391zm22.45 0.0464c-2.516-1.808-1.144-3.981 1.602-2.536 2.364 1.244 4.867 0.5562 4.867-1.337 0-0.7292-1.577-2.698-3.504-4.375-4.158-3.618-4.461-6.491-0.9235-8.769 1.953-1.258 3.231-1.437 5.256-0.737 3.503 1.211 2.911 2.931-0.8729 2.536-3.984-0.416-3.799 1.381 0.5451 5.292 4.131 3.719 4.618 7.422 1.279 9.721-2.736 1.883-5.807 1.96-8.248 0.2051zm31.04 0.6089c-5.684-1.419-9.552-6.508-9.552-12.57 0-7.611 6.083-13.31 14.13-13.25 5.306 0.0422 9.17 1.868 7.974 3.768-0.6362 1.012-1.312 1.067-2.894 0.2344-5.413-2.848-12.55-0.044-14.27 5.609-2.253 7.391 4.042 14.99 11.14 13.46 2.701-0.583 2.93-0.9734 2.93-4.982 0-3.694 0.302-4.35 2.002-4.35 1.757 0 2.002 0.656 2.002 5.366 0 5.362-2e-3 5.366-3.754 6.39-3.906 1.066-6.396 1.148-9.719 0.318zm34.38-0.7578c-5.105-2.727-6.303-11.82-2.055-15.6 4.902-4.36 13.34-2.298 15.02 3.668 1.325 4.716 0.3782 8.13-3.037 10.96-3.329 2.753-6.089 3.024-9.928 0.9735zm7.549-3.023c0.8864-0.8712 1.573-3.203 1.573-5.342 0-6.328-5.223-9.232-8.453-4.701-2.148 3.014-1.951 7.267 0.4438 9.621 2.41 2.369 4.327 2.495 6.436 0.4217zm11.68 2.628c-1.761-1.731-2.101-3.261-2.101-9.445 0-6.724 0.178-7.38 2.002-7.38 1.806 0 2.002 0.656 2.002 6.691 0 6.533 1.011 9.053 3.633 9.053 2.937 0 4.376-3.097 4.376-9.418 0-5.67 0.2076-6.326 2.002-6.326 1.854 0 2.002 0.656 2.002 8.871v8.871l-2.753-0.045c-1.514-0.0248-4.173 0.2334-5.908 0.5738-2.425 0.4756-3.641 0.1409-5.256-1.447zm-308.4-10.43v-11.32h-4.004c-2.892 0-4.004-0.41-4.004-1.476 0-1.214 1.78-1.476 10.01-1.476s10.01 0.2624 10.01 1.476c0 1.066-1.112 1.476-4.004 1.476h-4.004v11.32c0 10.66-0.1161 11.32-2.002 11.32s-2.002-0.656-2.002-11.32zm47.05-1.968c0-12.63 0.099-13.28 2.002-13.28 1.903 0 2.002 0.656 2.002 13.28 0 12.63-0.099 13.28-2.002 13.28-1.903 0-2.002-0.656-2.002-13.28zm29.03 4.412v-8.871l2.753 0.1468c1.514 0.0808 3.429-0.129 4.255-0.466 0.8259-0.3371 2.08-0.25 2.787 0.1934 1.79 1.123 0.449 4.119-1.513 3.379-2.553-0.963-4.277 2.574-4.277 8.774 0 5.06-0.2298 5.716-2.002 5.716-1.854 0-2.002-0.656-2.002-8.871zm52.28-3.674 0.2802-12.55 6.257-0.2929c5.009-0.2345 6.257-5.9e-4 6.257 1.173 0 1.022-1.29 1.558-4.255 1.769l-4.255 0.3026v8.856l4.255 0.3026c2.897 0.206 4.255 0.7555 4.255 1.722 0 1.026-1.248 1.419-4.505 1.419h-4.505v4.92c0 4.288-0.261 4.92-2.032 4.92-1.95 0-2.021-0.504-1.752-12.55zm16.8 3.674v-8.871l2.753 0.1468c1.514 0.0808 3.429-0.129 4.255-0.466 1.932-0.7883 4.471 0.781 3.573 2.208-0.3783 0.6017-1.546 1.094-2.596 1.094-2.71 0-3.981 2.962-3.981 9.283 0 4.821-0.2398 5.476-2.002 5.476-1.854 0-2.002-0.656-2.002-8.871zm31.03 0v-8.871l2.753 0.1246c1.514 0.0686 4.187-0.1953 5.94-0.5863 2.64-0.5888 3.628-0.2774 5.756 1.814 2.272 2.233 2.569 3.327 2.569 9.458 0 6.277-0.1895 6.932-2.002 6.932-1.782 0-2.002-0.656-2.002-5.968 0-6.778-1.217-9.775-3.968-9.775-3.604 0-5.042 2.687-5.042 9.418 0 5.67-0.2076 6.326-2.002 6.326-1.854 0-2.002-0.656-2.002-8.871zm39.04 0.0156c0-8.2 0.1483-8.856 2.002-8.856s2.002 0.656 2.002 8.856c0 8.2-0.1483 8.856-2.002 8.856s-2.002-0.656-2.002-8.856zm58.07 0.011c0-8.521 0.0825-8.844 2.253-8.829 1.239 9e-3 3.379-0.107 4.755-0.257 1.928-0.2101 2.503 0.1792 2.503 1.695 0 1.476-0.563 1.891-2.253 1.66-2.826-0.3862-4.254 2.877-4.254 9.72 0 3.66-0.3697 4.856-1.502 4.856-1.223 0-1.502-1.639-1.502-8.845zm-58.39-14.18c-0.6751-1.729 0.1318-2.556 2.494-2.556 1.168 0 1.835 0.7156 1.835 1.968 0 2.292-3.479 2.765-4.329 0.5882zm-203.9-20.33c-6.62-1.318-13.06-5.677-16.53-11.18-3.814-6.064-4.77-16.8-2.106-23.65 5.101-13.13 24.33-20.1 37.86-13.73 4.018 1.892 4.315 2.47 2.746 5.352-0.986 1.811-1.103 1.81-5.256-0.0431-4.708-2.101-13.05-2.526-17.45-0.8887-6.825 2.541-11.28 9.904-11.28 18.63 0 15.02 12.79 24.11 26.99 19.19 5.447-1.889 5.723-1.868 7.025 0.5243 0.9729 1.787 0.6293 2.197-3.218 3.839-5.437 2.32-13.02 3.116-18.78 1.97zm85.89-0.3157c-5.718-1.209-7.035-1.906-12.2-6.46-9.312-8.214-10.05-24.67-1.551-34.8 7.893-9.411 26.73-12.46 35.69-5.781 2.11 1.574 2.158 1.836 0.6985 3.884l-1.565 2.196-3.912-1.962c-5.65-2.833-14.12-2.658-19.43 0.4017-11.97 6.895-12.36 26.99-0.6667 34.59 5.477 3.563 13.35 4.241 19.28 1.663 4.512-1.962 4.515-1.962 5.765 0.0039 1.754 2.761-0.0112 4.217-7.395 6.1-6.877 1.754-7.157 1.757-14.71 0.1596zm121 0.3214c-8.787-2.105-13.05-8.136-13.17-18.64-0.0591-5.049 0.41-7.162 2.228-10.04 3.176-5.02 8.433-8.014 14.22-8.099 8.548-0.1249 13.28 4.413 14.57 13.96l0.6958 5.155h-12.14c-11.93 0-12.14 0.03946-12.14 2.214 5e-3 2.904 3.328 8.187 6.051 9.619 1.926 1.013 4.587 0.9741 13.94-0.2055 1.722-0.2173 2.58 0.2161 2.83 1.429 0.6774 3.288-10.26 6.233-17.08 4.598zm11.28-24.41c0-1.009-0.9337-3.002-2.075-4.428-4.033-5.04-12.31-2.712-14.4 4.049-0.6714 2.176-0.5357 2.214 7.894 2.214 7.703 0 8.577-0.187 8.577-1.835zm19.52 24.98c-0.5506-0.1863-2.127-0.602-3.504-0.9238-1.377-0.3218-3.367-1.239-4.424-2.038-1.865-1.41-1.867-1.512-0.0875-3.445 1.68-1.824 2.028-1.867 4.139-0.5076 2.761 1.778 8.509 1.949 10.18 0.3035 2.356-2.315 1.303-5.515-2.91-8.849-10.28-8.135-10.36-8.23-10.36-12.5 0-4.981 2.546-7.764 8.258-9.026 2.851-0.6296 5.234-0.533 7.832 0.3175 4.013 1.314 4.857 2.411 3.489 4.535-0.7041 1.093-1.54 1.126-4.473 0.1748-4.004-1.299-7.165-0.7196-8.02 1.47-0.9268 2.374 0.3315 4.19 5.473 7.9 6.571 4.741 8.92 7.885 8.92 11.94 0 4.347-1.39 6.825-4.785 8.53-3.02 1.517-8.184 2.639-9.731 2.116zm25.47-0.4622c-6.558-1.95-8.535-4.418-5.515-6.882 1.125-0.9178 1.974-0.8231 3.934 0.439 3.001 1.933 8.549 1.605 9.945-0.5874 1.858-2.919-0.0824-6.322-5.823-10.21-6.346-4.296-7.488-5.915-7.488-10.62 0-7.851 11.88-11.81 20.02-6.668 1.322 0.835 1.304 1.143-0.1474 2.57-1.397 1.374-2.192 1.445-5.207 0.4672-2.606-0.8452-4.107-0.8653-5.609-0.07508-3.081 1.621-2.484 4.38 1.703 7.876 10.65 8.887 12.19 11.71 9.663 17.63-2.106 4.923-9.526 7.826-15.48 6.056zm-232.2-25.14v-25.09h9.042c10.17 0 14.54 1.331 17.82 5.425 4.04 5.048 2.306 15.62-3.268 19.93l-2.678 2.07 6.191 10.43c3.405 5.737 5.962 10.65 5.684 10.93-0.2788 0.2741-2.027 0.7376-3.885 1.03l-3.378 0.5319-5.576-10.17c-5.397-9.843-5.694-10.18-9.26-10.47l-3.685-0.3054v20.78h-7.008zm18.1-4.352c3.095-3.042 3.94-8.183 1.946-11.84-1.125-2.067-6.013-3.975-10.18-3.975h-2.854v18.7h4.081c3.176 0 4.731-0.6379 7.008-2.876zm86.69 28.79c-0.3671-0.3608-0.6674-11.65-0.6674-25.09v-24.43h9.543c10.68 0 15 1.274 18.29 5.392 4.464 5.578 4.008 13.18-1.137 18.93-3.633 4.067-8.125 6.176-13.15 6.176-3.054 0-3.536-0.3185-3.536-2.334 0-1.943 0.6394-2.435 3.812-2.933 10.57-1.661 12.45-16.55 2.443-19.28-2.064-0.5634-4.766-1.027-6.005-1.03l-2.253-0.0059v45.26h-3.337c-1.835 0-3.637-0.2952-4.004-0.656zm35.82-0.6101c-0.2719-0.6964-0.3704-8.777-0.2189-17.96l0.2755-16.69 3.254-0.3083c2.795-0.2649 3.254 2e-3 3.254 1.893v2.202l2.253-1.993c3.368-2.979 5.565-3.418 8.823-1.762 3.367 1.711 3.502 2.185 1.442 5.076-1.308 1.836-1.87 1.965-4.425 1.017-5.92-2.196-8.078 2.93-8.087 19.21l-6e-3 10.58h-3.035c-1.669 0-3.257-0.5697-3.529-1.266z" fill="#a2a4cc" style="fill:#10137d;stroke-width:.9925"/>
 </g>
</svg>
